<?xml version="1.0" encoding="utf-8"?>
<!-- Generator: Adobe Illustrator 26.3.1, SVG Export Plug-In . SVG Version: 6.00 Build 0)  -->
<svg version="1.1" id="Layer_1" xmlns="http://www.w3.org/2000/svg" xmlns:xlink="http://www.w3.org/1999/xlink" x="0px" y="0px"
	 viewBox="0 0 2561.9 656.4" style="enable-background:new 0 0 2561.9 656.4;" xml:space="preserve">
<style type="text/css">
	.st0{display:none;}
	.st1{display:inline;fill:#B200FF;}
</style>
<image style="display:none;overflow:visible;" width="906" height="289" xlink:href="Screen Shot 2022-08-01 at 9.58.40.png"  transform="matrix(3.0948 0 0 3.0948 465.682 -971.3365)">
</image>
<g class="st0">
	<path class="st1" d="M974.5-475.2c0.1-4.1-1.5-7.6-4.2-10.5c-2.3-2.4-5-4.2-7.9-5.7c-0.9-0.5-2.4-0.7-2.1-2.2
		c1-4.8,0.4-9.9,3.3-14.4c25.7-39.5,39.2-82.8,39.8-129.9c0-10.2-0.7-20.3-2.1-30.4c-4.9-33.8-17.4-64.6-35.9-93.1
		c-29-44.5-68.4-75.3-119.1-91.4c-19.2-6.1-38.9-8.6-59.1-9.7c-45-2.4-85.6,8.8-121.3,36.6c-35,27.3-58.5,63.1-74.6,104.1
		c-1.2,2.9-2.6,4.2-5.6,5c-10.1,2.6-17.2,7.6-19.1,19.2c-5.7,34.8-4.1,68.2,16.6,98.4c0.7,1.1,1.4,2.1,1,3.4
		c-2.4,8.4,0.4,15.8,4.3,23c3.3,6,7.5,11.2,12.1,16.3c2.7,3,4.4,6.8,2.2,10.3c-2.7,4.2-1.9,8.1-0.6,12.2c1.1,3.5,0.2,4.6-3.5,4.9
		c-9.7,0.8-13.2,4.4-14.3,14.1c-0.5,4-0.8,8-0.8,12c0,3-1,5-3.2,7.1c-11.7,10.6-13.7,24.2-6.1,38.1c4.5,8.2,11.4,13.5,19.5,17.5
		c10.7,5.3,21.7,9.6,32.9,13.7c39.1,14,79,25.6,118.7,37.6c34.2,10.4,68.7,20.2,102.3,32.4c11.9,4.3,24.3,8,34.3,16.5
		c1.2,1,2.6,0.8,4,0.5c9.8-1.9,19.1-5,27.9-9.7c13.7-7.5,23.4-18.2,27.4-33.6c1.4-5.3,3.8-10.3,6.3-15.2
		c4.5-8.5,10.2-16.4,15.4-24.5c5.6-8.7,10.5-17.8,11.3-28.3C974.7-459.1,974.3-467.2,974.5-475.2z M967.7-742.7
		c19.1,34.7,29.2,71.5,27.8,111.2c-1.6,42.8-14.7,82-37.6,118.1c-1.9,2.9-4.4,2.9-7.1,3.1c-17.7,0.8-35.3,1.8-53,2
		c-24.9,0.4-49.9,0.5-74.7-2.6c-2.2-0.3-4.4-0.7-6.7-1c-7.3-0.9-12.6-4.4-17-10.7c-12.7-17.9-26.1-35.2-39.1-52.9
		c-2.2-3-4.7-4.9-8.1-6.2c-28.1-10.6-56.1-21.4-84.2-32c-3.2-1.2-3.8-2.7-3.2-5.8c2.6-13.9,3.8-28,4.2-42.2c0.1-1.9,0.3-3.2,2.1-4.3
		c30.9-18.8,61.6-37.9,93.8-54.6c3.3-1.7,6.6-3.6,10.2-4.8c4.5-1.4,7.3-4.2,9.6-8.2c3.9-7,8.3-13.7,12.5-20.6c1-1.7,2.3-2.8,4.2-3.4
		c29.9-9.9,60.4-16.4,92.1-15.9c21.3,0.4,41.8,4.3,60.3,15.9C959.7-753.7,964.3-749,967.7-742.7z M917.3-805
		c11.6,10,22.1,21.1,31.4,33.3c0.6,0.8,1.1,1.6,1.7,2.6c-0.6,0-1,0.2-1.3,0.1c-19.6-9.5-40.6-12.4-62.1-12
		c-31.1,0.4-61.1,7-90.4,17.1c-2.3,0.8-3.8,2.1-5,4.2c-4.7,7.8-9.5,15.6-14.3,23.4c-0.7,1.2-1.3,2.3-2.7,3
		c-26,11.3-50,26.5-74.3,40.8c-10.2,6-20.3,12.3-31.1,18.8c-0.8-11.3-1.6-22.1-4.5-32.5c-0.6-2-0.9-4.3-1.8-6.1
		c-1.8-3.4-0.4-4.6,2.5-6.2c25-13.5,49.9-27.1,74.9-40.6c2.4-1.3,4.2-2.9,5.7-5.2c8.2-12.8,16.5-25.4,24.7-38.1
		c1-1.6,2.1-2.9,4.1-3.6c27.7-8.9,55.9-15,85-15.2c14.9-0.1,29.5,1.7,43.4,7.3C908.6-812.1,913-808.7,917.3-805z M607.6-740
		c17.1-34.1,39.5-63.9,71.2-85.8c29.7-20.5,62.8-29.7,98.8-29.2c24.7,0.3,48.9,3.3,72.3,11.5c10.6,3.8,21,8.1,30.9,13.6
		c1,0.6,2.4,0.8,3,2.4c-10.7-1.8-21.4-2-32-1.5c-28.2,1.3-55.5,7.4-82.2,16.3c-2.1,0.7-3.2,2.2-4.3,3.9c-8.5,13-17,26-25.4,39.1
		c-1.1,1.7-2.5,3-4.3,4c-25,13.5-49.9,27.1-74.8,40.8c-2.2,1.2-3,0.9-4.3-1.2c-5.3-9.1-12.4-16.1-23.5-17.5
		c-8.8-1.1-16.5,1.8-23.8,6.3c-1,0.6-1.9,1.2-2.9,1.8c-0.1,0-0.2,0-0.5-0.1C605.9-737.4,606.9-738.7,607.6-740z M577.6-704.5
		c2.2-2,4.8-3.3,8.2-4.2c-1.1,4.2-2,7.8-3,11.4c-0.2,0.6-0.3,1.5-1,1.3c-2.3-0.8-3.9-2.6-5.2-4.6
		C575.5-702.2,576.5-703.5,577.6-704.5z M578.2-624.9c-6.1-17.2-7.6-35.2-6.5-53.3c0.3-4.5,0.6-8.9,1.9-13.6
		c2.9,1.9,5.4,3.8,8.1,5.3c4.8,2.9,7,1.6,7.7-3.9c2.4-18.1,10.2-32.9,26.7-42c12.9-7.1,24-4.4,32.2,7.8c7.5,11.2,10.4,24,11.8,37.2
		c2.5,24.2,0.5,48.3-4,72.1c-0.7,3.8,0.6,5.5,3.9,6.8c29.2,11.1,58.4,22.3,87.7,33.3c2.9,1.1,5.2,2.7,7,5.2
		c14,18.9,28.1,37.8,42.1,56.8c2.4,3.2,5.2,5.3,8.9,6.4c11.6,3.6,23.6,4.7,35.6,5.3c36,1.9,71.9,0.9,107.8-1.3
		c3.6-0.2,4.6,0.5,3.8,4.2c-1,4.5-1.4,9.2-1.8,13.8c-0.3,2.5-1.3,3.5-3.9,4c-27,5.2-54.3,5.7-81.6,5.2c-31.2-0.6-62.3-3.5-93.2-7.4
		c-51.8-6.5-103.2-15.7-154.1-27c-2.6-0.6-3.8-1.5-4.2-4.2c-0.6-4.3-1.7-8.6-2.6-12.9c-0.2-0.8-0.6-1.9,0-2.5
		c0.8-0.8,1.6,0.2,2.3,0.5c16.1,7.1,33.2,11,50.3,14.9c2.2,0.5,4.6,0.8,5.8-1.9c1.2-2.6-0.5-4.2-2.3-5.7c-24.6-20.9-48-43-68.1-68.3
		C591-600.8,582.8-611.8,578.2-624.9z M594.7-577.8c-1.3-2.6-2.8-5.3-2.7-8.5c17.8,21.8,37.7,41.5,58.5,60.6
		c-12.7-3-25.3-6.2-36.9-12.2c-3-1.5-4.6-3-3.1-6.9c2.2-5.8,0.6-11.4-3.4-16.1C602.5-566.2,597.9-571.5,594.7-577.8z M596-521
		c2.3-0.7,4.7-0.5,7.1-0.6c1.6,0,1.8,1.1,2,2.2c0.4,1.6,0.6,3.2,0.9,4.8c0.2,1.2,0,2-1.5,1.6c-3.3-0.9-6.5-1.9-9.2-4.1
		C593.4-518.7,593.1-520.1,596-521z M965.2-445.5c-2,6.8-5.4,12.9-9.2,18.8c-5.3,8.3-11.1,16.4-15.7,25.2c-2.5,4.9-5,9.9-6.3,15.2
		c-3.9,16.3-14.8,26.2-29.6,32.7c-1.9,0.9-4,1.5-5.9,2.4c-7.1,3.1-13.3,3.4-20.8-1.1c-16-9.4-34-14.4-51.6-20.2
		c-51.1-16.7-103-31-154.2-47.4c-23.2-7.4-46.5-14.8-68.8-24.9c-8.8-4-17.7-7.9-22.3-17.4c-1.8-3.8-3.3-7.6-3.4-12.3
		c0.1-6.4,3.4-11.6,8.3-16.1c0.9-0.8,1.6-0.8,2.6-0.2c18.8,11.7,40,16.8,61.2,21.8c39.5,9.2,79.7,14.9,120,19.3
		c42,4.6,84,8.3,126.3,7.7c22.4-0.3,44.8-1.9,66.9-6.3C965.8-448.9,965.9-447.9,965.2-445.5z M962.9-456.1
		c-13.5,2.7-27.2,4.3-41,5.3c-14.5,1-29,1.2-43.6,1.1c-33.3-0.6-66.5-3.3-99.7-6.7c-31.3-3.3-62.4-7.4-93.3-13
		c-26.5-4.8-52.8-10.2-78-20.1c-4.4-1.8-8.6-4-12.8-6.2c-2.8-1.5-4.1-3.4-3.4-6.6c0.1-0.6,0.1-1.2,0.1-1.9c0.3-5.3,0.3-5.3,5.1-3.3
		c9.2,3.8,19.1,5,28.7,7.1c39.1,8.7,78.5,15.9,118.2,21.6c49.1,7.1,98.5,12.3,148.2,11.4c20.1-0.4,40-1.9,59.7-5.9
		c6.4-1.3,6.6-1.3,7.3-7.5c0.4-3.5,1.5-3.2,3.8-1.5c3.1,2.2,4.7,4.9,4.5,8.9c-0.2,4.3-0.3,8.5,0,12.8
		C967-457.7,965.7-456.7,962.9-456.1z M665.1-535.8c1.2,0.3,2.4,0.7,3.6,1.1c20.1,6.8,40.3,13.7,60.4,20.5c4.3,1.4,5.5,0.9,7.2-3.3
		c2.9-6.9,5.8-13.8,8.7-20.8c2-4.9,1.4-6.3-3.6-8.1c-22.2-7.7-44.4-15.4-66.6-23.1c-1.8-0.6-3.6-1-5.5-0.9c-2.3-0.1-4.5,0.3-6.6,1.2
		c-6.7,3-10.6,10.5-9.9,19.1C653.3-543.1,657.9-537.7,665.1-535.8z M673.3-561.9c20.1,7.4,40.3,14.2,60.6,21.1
		c2.7,0.9,3.3,1.8,2,4.4c-1.8,3.6-3.3,7.3-4.6,11.1c-0.9,2.6-2,3-4.6,2.1c-18.4-6.4-36.9-12.6-55.4-18.8c-1.3-0.4-2.6-0.8-3.9-1.2
		c-4.5-1.3-6.9-4.4-6.9-9C660.5-560,666.2-564.5,673.3-561.9z M603.4-606.9c8.2,7.4,18.1,7.4,26.4,0c3.7-3.3,6.4-7.3,8.6-11.8
		c5.4-10.9,7.2-22.6,7.4-32.7c0-9.8-0.9-17.6-3-25.3c-2.4-8.8-6-17.1-13-23.3c-8.3-7.4-18.1-7.3-26.4,0c-3.7,3.3-6.5,7.3-8.6,11.7
		c-8,17.1-9.1,35-5.4,53.2C591.4-624.3,595.1-614.4,603.4-606.9z M599.9-680.6c1.6-4.3,3.7-8.2,6.7-11.6c6.3-7.1,13.6-7.2,19.9,0
		c5.3,6.1,7.9,13.5,9.7,21.3c1.3,5.9,1.8,11.9,1.8,17.9c0,10.6-1.7,20.9-6.3,30.6c-1.6,3.3-3.5,6.4-6.1,8.9
		c-5.8,5.7-12.1,5.8-17.8,0c-5.6-5.7-8.5-12.9-10.2-20.6C593.9-649.8,594.3-665.3,599.9-680.6z M931.2-746.3
		c2.1-2.3,4.2-1.5,6.2,0.3c7.4,6.9,13.1,15.1,17.9,24c10.8,19.6,16.4,40.8,19.1,62.8c0.6,5.3,1.1,10.7,1.6,16.1
		c-0.1,3,0.7,6.4-3.6,7.1c-2.7,0.5-4.1-1.6-4.4-6.9c-1.2-22-5.1-43.5-13.9-63.9c-5.4-12.5-12.2-24.2-22.2-33.6
		C930.1-742.1,929.3-744.2,931.2-746.3z M976.7-621.8c0.3,7.4,0,14.8-1.2,22.1c-0.4,2.5-1.6,4.5-4.3,4.2c-3-0.3-3.7-2.5-3.4-5.2
		c0.5-4.3,0.9-8.7,1.4-13.1c-0.1,0-0.1,0-0.2,0c0-2.6,0-5.3,0-7.9c0-2.5,1.1-4.2,3.8-4.2C975.4-625.9,976.6-624.3,976.7-621.8z"/>
	
		<text transform="matrix(1 0 0 1 724.9604 -506.5988)" style="display:inline;fill:#0000FF; font-family:'Poppins-Medium'; font-size:378.4747px; letter-spacing:117;">Gagarin</text>
	
		<text transform="matrix(1 0 0 1 562.4902 -207.6428)" style="display:inline;fill:#0000FF; font-family:'Poppins-Regular'; font-size:167.2441px; letter-spacing:62;">online art galery</text>
</g>
<path d="M410.4,411.7c0.6-8,0.2-16,0.3-24c0.1-4.1-1.5-7.6-4.2-10.5c-2.3-2.4-5-4.2-7.9-5.7c-0.9-0.5-2.4-0.7-2.1-2.2
	c1-4.8,0.4-9.9,3.3-14.4c17.4-26.7,29.2-55.2,35.2-85.5h0c2.9-14.4,4.4-29.2,4.6-44.5c0-4.3-0.1-8.5-0.4-12.8h-7.7h-19.9h-7.8h-39.2
	h-69.7v34.4h98.8c-3.3,22.5-12.2,40.2-26.9,53.4c-14.6,13.1-33.7,19.7-57.1,19.7c-17.4,0-32.9-3.9-46.6-11.7
	c-13.6-7.8-24.3-19-32-33.5c-7.7-14.5-11.5-31.2-11.5-50.1c0-18.9,3.8-35.6,11.5-50c7.7-14.4,18.4-25.5,32-33.3
	c13.6-7.8,29.1-11.7,46.6-11.7c15.9,0,29.9,3.3,42,10c12.1,6.7,21.6,16.6,28.4,29.7h15.3h8.2h20.7h8c-6.5-24-16.9-46.4-30.7-67.6
	C372.7,56.9,333.2,26,282.5,10c-19.2-6.1-38.9-8.6-59.1-9.7c-45-2.4-85.6,8.8-121.3,36.6C67.1,64.3,43.6,100,27.6,141
	c-1.2,2.9-2.6,4.2-5.6,5c-10.1,2.6-17.2,7.6-19.1,19.2c-5.7,34.8-4.1,68.2,16.6,98.4c0.7,1.1,1.4,2.1,1,3.4
	c-2.4,8.4,0.4,15.8,4.3,23c3.3,6,7.5,11.2,12.1,16.3c2.7,3,4.4,6.8,2.2,10.3c-2.7,4.2-1.9,8.1-0.6,12.2c1.1,3.5,0.2,4.6-3.5,4.9
	c-9.7,0.8-13.2,4.4-14.3,14.1c-0.5,4-0.8,8-0.8,12c0,3-1,5-3.2,7.1c-11.7,10.6-13.7,24.2-6.1,38.1c4.5,8.2,11.4,13.5,19.5,17.5
	c10.7,5.3,21.7,9.6,32.9,13.7c39.1,14,79,25.6,118.7,37.6c34.2,10.4,68.7,20.2,102.3,32.4c11.9,4.3,24.3,8,34.3,16.5
	c1.2,1,2.6,0.8,4,0.5c9.8-1.9,19.1-5,27.9-9.7c13.7-7.5,23.4-18.2,27.4-33.6c1.4-5.3,3.8-10.3,6.3-15.2c4.5-8.5,10.2-16.4,15.4-24.5
	C404.7,431.3,409.6,422.2,410.4,411.7z M353.6,57.8c11.6,10,22.1,21.1,31.4,33.3c0.6,0.8,1.1,1.6,1.7,2.6c-0.6,0-1,0.2-1.3,0.1
	c-19.6-9.5-40.6-12.4-62.1-12c-31.1,0.4-61.1,7-90.4,17.1c-2.3,0.8-3.8,2.1-5,4.2c-4.7,7.8-9.5,15.6-14.3,23.4
	c-0.7,1.2-1.3,2.3-2.7,3c-26,11.3-50,26.5-74.3,40.8c-10.2,6-20.3,12.3-31.1,18.8c-0.8-11.3-1.6-22.1-4.5-32.5
	c-0.6-2-0.9-4.3-1.8-6.1c-1.8-3.4-0.4-4.6,2.5-6.2c25-13.5,49.9-27.1,74.9-40.6c2.4-1.3,4.2-2.9,5.7-5.2
	c8.2-12.8,16.5-25.4,24.7-38.1c1-1.6,2.1-2.9,4.1-3.6c27.7-8.9,55.9-15,85-15.2c14.9-0.1,29.5,1.7,43.4,7.3
	C344.9,50.8,349.3,54.2,353.6,57.8z M186.6,280.5c-27.4-10.4-54.8-20.9-82.3-31.2c-3.2-1.2-3.8-2.7-3.2-5.8
	c2.6-13.9,3.8-28,4.2-42.2c0.1-1.9,0.3-3.2,2.1-4.3c30.9-18.8,61.6-37.9,93.8-54.6c0.2-0.1,0.4-0.2,0.5-0.3
	c-3.1,4.1-5.9,8.3-8.6,12.8c-12,20.4-18,43.5-18,69.3C175.2,244.6,179,263.4,186.6,280.5z M43.9,122.8C61,88.7,83.4,58.9,115.1,37
	c29.7-20.5,62.8-29.7,98.8-29.2c24.7,0.3,48.9,3.3,72.3,11.5c10.6,3.8,21,8.1,30.9,13.6c1,0.6,2.4,0.8,3,2.4
	c-10.7-1.8-21.4-2-32-1.5c-28.2,1.3-55.5,7.4-82.2,16.3c-2.1,0.7-3.2,2.2-4.3,3.9c-8.5,13-17,26-25.4,39.1c-1.1,1.7-2.5,3-4.3,4
	c-25,13.5-49.9,27.1-74.8,40.8c-2.2,1.2-3,0.9-4.3-1.2c-5.3-9.1-12.4-16.1-23.5-17.5c-8.8-1.1-16.5,1.8-23.8,6.3
	c-1,0.6-1.9,1.2-2.9,1.8c-0.1,0-0.2,0-0.5-0.1C42.2,125.5,43.2,124.2,43.9,122.8z M13.8,158.4c2.2-2,4.8-3.3,8.2-4.2
	c-1.1,4.2-2,7.8-3,11.4c-0.2,0.6-0.3,1.5-1,1.3c-2.3-0.8-3.9-2.6-5.2-4.6C11.8,160.7,12.7,159.4,13.8,158.4z M14.5,238
	c-6.1-17.2-7.6-35.2-6.5-53.3c0.3-4.5,0.6-8.9,1.9-13.6c2.9,1.9,5.4,3.8,8.1,5.3c4.8,2.9,7,1.6,7.7-3.9c2.4-18.1,10.2-32.9,26.7-42
	c12.9-7.1,24-4.4,32.2,7.8c7.5,11.2,10.4,24,11.8,37.2c2.5,24.2,0.5,48.3-4,72.1c-0.7,3.8,0.6,5.5,3.9,6.8
	c29.2,11.1,58.4,22.3,87.7,33.3c2.9,1.1,5.2,2.7,7,5.2c14,18.9,28.1,37.8,42.1,56.8c2.4,3.2,5.2,5.3,8.9,6.4
	c11.6,3.6,23.6,4.7,35.6,5.3c36,1.9,71.9,0.9,107.8-1.3c3.6-0.2,4.6,0.5,3.8,4.2c-1,4.5-1.4,9.2-1.8,13.8c-0.3,2.5-1.3,3.5-3.9,4
	c-27,5.2-54.3,5.7-81.6,5.2c-31.2-0.6-62.3-3.5-93.2-7.4c-51.8-6.5-103.2-15.7-154.1-27c-2.6-0.6-3.8-1.5-4.2-4.2
	c-0.6-4.3-1.7-8.6-2.6-12.9c-0.2-0.8-0.6-1.9,0-2.5c0.8-0.8,1.6,0.2,2.3,0.5c16.1,7.1,33.2,11,50.3,14.9c2.2,0.5,4.6,0.8,5.8-1.9
	c1.2-2.6-0.5-4.2-2.3-5.7c-24.6-20.9-48-43-68.1-68.3C27.3,262.1,19.1,251,14.5,238z M30.9,285c-1.3-2.6-2.8-5.3-2.7-8.5
	C46,298.3,65.9,318,86.7,337.1c-12.7-3-25.3-6.2-36.9-12.2c-3-1.5-4.6-3-3.1-6.9c2.2-5.8,0.6-11.4-3.4-16.1
	C38.8,296.6,34.2,291.3,30.9,285z M32.3,341.8c2.3-0.7,4.7-0.5,7.1-0.6c1.6,0,1.8,1.1,2,2.2c0.4,1.6,0.6,3.2,0.9,4.8
	c0.2,1.2,0,2-1.5,1.6c-3.3-0.9-6.5-1.9-9.2-4.1C29.7,344.2,29.4,342.7,32.3,341.8z M27.3,360.4c0.1-0.6,0.1-1.2,0.1-1.9
	c0.3-5.3,0.3-5.3,5.1-3.3c9.2,3.8,19.1,5,28.7,7.1c39.1,8.7,78.5,15.9,118.2,21.6c49.1,7.1,98.5,12.3,148.2,11.4
	c20.1-0.4,40-1.9,59.7-5.9c6.4-1.3,6.6-1.3,7.3-7.5c0.4-3.5,1.5-3.2,3.8-1.5c3.1,2.2,4.7,4.9,4.5,8.9c-0.2,4.3-0.3,8.5,0,12.8
	c0.2,3.1-1.1,4.1-3.8,4.7c-13.5,2.7-27.2,4.3-41,5.3c-14.5,1-29,1.2-43.6,1.1c-33.3-0.6-66.5-3.3-99.7-6.7
	c-31.3-3.3-62.4-7.4-93.3-13c-26.5-4.8-52.8-10.2-78-20.1c-4.4-1.8-8.6-4-12.8-6.2C28,365.5,26.7,363.5,27.3,360.4z M376.6,461.4
	c-2.5,4.9-5,9.9-6.3,15.2c-3.9,16.3-14.8,26.2-29.6,32.7c-1.9,0.9-4,1.5-5.9,2.4c-7.1,3.1-13.3,3.4-20.8-1.1
	c-16-9.4-34-14.4-51.6-20.2c-51.1-16.7-103-31-154.2-47.4c-23.2-7.4-46.5-14.8-68.8-24.9c-8.8-4-17.7-7.9-22.3-17.4
	c-1.8-3.8-3.3-7.6-3.4-12.3c0.1-6.4,3.4-11.6,8.3-16.1c0.9-0.8,1.6-0.8,2.6-0.2c18.8,11.7,40,16.8,61.2,21.8
	c39.5,9.2,79.7,14.9,120,19.3c42,4.6,84,8.3,126.3,7.7c22.4-0.3,44.8-1.9,66.9-6.3c3-0.6,3.2,0.4,2.5,2.8c-2,6.8-5.4,12.9-9.2,18.8
	C387,444.6,381.2,452.6,376.6,461.4z M101.3,327.1c1.2,0.3,2.4,0.7,3.6,1.1c20.1,6.8,40.3,13.7,60.4,20.5c4.3,1.4,5.5,0.9,7.2-3.3
	c2.9-6.9,5.8-13.8,8.7-20.8c2-4.9,1.4-6.3-3.6-8.1c-22.2-7.7-44.4-15.4-66.6-23.1c-1.8-0.6-3.6-1-5.5-0.9c-2.3-0.1-4.5,0.3-6.6,1.2
	c-6.7,3-10.6,10.5-9.9,19.1C89.5,319.7,94.2,325.1,101.3,327.1z M109.5,301c20.1,7.4,40.3,14.2,60.6,21.1c2.7,0.9,3.3,1.8,2,4.4
	c-1.8,3.6-3.3,7.3-4.6,11.1c-0.9,2.6-2,3-4.6,2.1c-18.4-6.4-36.9-12.6-55.4-18.8c-1.3-0.4-2.6-0.8-3.9-1.2c-4.5-1.3-6.9-4.4-6.9-9
	C96.8,302.9,102.4,298.4,109.5,301z M2388.5,356.3h-43.1V92.8h43.1l129.8,196v-196h43.1v263.4h-43.1l-129.8-196.4V356.3z
	 M94.3,544.9c-8.9-5.1-18.8-7.6-29.8-7.6c-10.8,0-20.7,2.5-29.6,7.6c-8.9,5.1-16,12.2-21.2,21.2C8.6,575.2,6,585.5,6,596.8
	c0,11.4,2.6,21.6,7.8,30.7c5.2,9.1,12.2,16.2,21.2,21.2c8.9,5.1,18.8,7.6,29.6,7.6c10.9,0,20.8-2.5,29.8-7.6
	c8.9-5.1,15.9-12.1,21.1-21.2c5.1-9,7.7-19.3,7.7-30.8c0-11.5-2.6-21.7-7.7-30.8C110.2,557,103.2,550,94.3,544.9z M101.9,621.3
	c-3.7,7-8.9,12.4-15.4,16.2c-6.5,3.8-13.9,5.7-22,5.7c-8.1,0-15.5-1.9-22-5.7c-6.5-3.8-11.7-9.2-15.4-16.2c-3.7-7-5.6-15.2-5.6-24.4
	c0-9.4,1.9-17.5,5.6-24.5c3.7-7,8.8-12.3,15.3-16.1c6.5-3.8,13.8-5.7,22.1-5.7c8.2,0,15.6,1.9,22.1,5.7c6.5,3.8,11.6,9.2,15.3,16.1
	c3.7,7,5.6,15.1,5.6,24.5C107.5,606.1,105.6,614.2,101.9,621.3z M282.4,538.5h15.2v116.7h-15.2l-61.2-92.8v92.8H206V538.5h15.2
	l61.2,92.7V538.5z M39.7,256c8.2,7.4,18.1,7.4,26.4,0c3.7-3.3,6.4-7.3,8.6-11.8c5.4-10.9,7.2-22.6,7.4-32.7c0-9.8-0.9-17.6-3-25.3
	c-2.4-8.8-6-17.1-13-23.3c-8.3-7.4-18.1-7.3-26.4,0c-3.7,3.3-6.5,7.3-8.6,11.7c-8,17.1-9.1,35-5.4,53.2
	C27.7,238.5,31.4,248.5,39.7,256z M36.2,182.3c1.6-4.3,3.7-8.2,6.7-11.6c6.3-7.1,13.6-7.2,19.9,0c5.3,6.1,7.9,13.5,9.7,21.3
	c1.3,5.9,1.8,11.9,1.8,17.9c0,10.6-1.7,20.9-6.3,30.6c-1.6,3.3-3.5,6.4-6.1,8.9c-5.8,5.7-12.1,5.8-17.8,0
	c-5.6-5.7-8.5-12.9-10.2-20.6C30.2,213.1,30.6,197.5,36.2,182.3z M1469.2,92.8L1375,356.3h45l18.9-53.7h110.1l18.9,53.7h45.4
	l-94.2-263.4H1469.2z M1451.1,267.3l43.1-122.2l42.8,122.2H1451.1z M1891.1,539.3L1849,655.2h16.1l9.4-25.9h50.8l9.4,25.9h16.1
	l-42-115.9H1891.1z M1878.7,616.9l21.1-58.9l21.1,58.9H1878.7z M2047.2,642.8h40.8v12.4h-56V538.6h15.2V642.8z M1710.7,592.3h62.7
	V604c-0.9,9.6-3.9,18.4-9,26.3c-5.1,8-11.9,14.3-20.2,18.9c-8.4,4.6-17.7,6.9-27.9,6.9c-10.8,0-20.7-2.5-29.6-7.6
	c-8.9-5.1-16-12.1-21.2-21.2s-7.8-19.2-7.8-30.6c0-11.4,2.6-21.6,7.8-30.7c5.2-9.1,12.2-16.2,21.2-21.2c8.9-5.1,18.8-7.6,29.6-7.6
	c12.4,0,23.3,3.1,32.9,9.2c9.5,6.1,16.5,14.8,20.8,25.9h-18.2c-3.2-6.8-7.9-12.1-14-15.8c-6.1-3.7-13.3-5.6-21.4-5.6
	c-8.1,0-15.5,1.9-22,5.6c-6.5,3.7-11.7,9.1-15.4,16.1c-3.7,7-5.6,15-5.6,24.2c0,9.1,1.9,17.2,5.6,24.1c3.7,6.9,8.9,12.2,15.4,16
	c6.5,3.7,13.9,5.6,22,5.6c11.4,0,20.7-3.4,28.1-10.2c7.4-6.8,11.6-16,12.9-27.6h-46.5V592.3z M1940.6,218.7
	c10-14,14.9-29.6,14.9-46.7c0-14.6-3.5-27.9-10.4-39.7c-6.9-11.9-17.4-21.3-31.4-28.4c-14-7.1-31.1-10.6-51.3-10.6h-90.8v263h43.1
	V251h32.9l60.6,105.2h51.5l-65.1-109C1915.3,242.2,1930.7,232.7,1940.6,218.7z M1814.8,216.6v-88.2h47.7c16.4,0,28.6,3.8,36.7,11.5
	c8.1,7.7,12.1,18.4,12.1,32c0,13.6-4.1,24.5-12.3,32.5c-8.2,8.1-20.4,12.1-36.5,12.1H1814.8z M2386.9,594.2
	c4.6-6.1,6.9-13.2,6.9-21.2c0-6.6-1.5-12.4-4.5-17.6c-3-5.1-7.6-9.2-13.6-12.2c-6.1-3-13.5-4.5-22.3-4.5h-37.6v116.6h15.2v-47.7
	h18.4l27.8,47.7h18.2l-29.3-48.8C2375.3,604.4,2382.3,600.3,2386.9,594.2z M2331,595.3v-44.2h22.4c8.4,0,14.6,1.9,18.6,5.7
	c4.1,3.8,6.1,9.1,6.1,16.1c0,6.8-2.1,12.2-6.2,16.3c-4.1,4.1-10.3,6.1-18.6,6.1H2331z M2171.3,356.3h-43.1v-263h43.1V356.3z
	 M2561.9,538.6l-38,72.6v44h-15.2v-44l-38.1-72.6h16.9l28.8,59l28.8-59H2561.9z M2167.1,538.5h62.7V551h-47.5v39h42.5v12.5h-42.5
	v40.1h47.5v12.5h-62.7V538.5z M806,538.5h62.7V551h-47.5v39h42.5v12.5h-42.5v40.1h47.5v12.5H806V538.5z M702,538.5h15.2v116.7H702
	l-61.2-92.8v92.8h-15.2V538.5h15.2l61.2,92.7V538.5z M401.7,642.8h40.8v12.4h-56V538.6h15.2V642.8z M1395.2,538.6h78.9V551h-31.8
	v104.2h-15.2V551h-31.9V538.6z M521.6,538.6h15.2v116.6h-15.2V538.6z M728.2,92.8h-50L584,356.3h45l18.9-53.7h110.1l18.9,53.7h45.4
	L728.2,92.8z M660.1,267.3l43.1-122.2L746,267.3H660.1z M1097.1,539.3l-42.1,115.9h16.1l9.4-25.9h50.8l9.4,25.9h16.1l-42-115.9
	H1097.1z M1084.7,616.9l21.1-58.9l21.1,58.9H1084.7z M1309,594.2c4.6-6.1,6.9-13.2,6.9-21.2c0-6.6-1.5-12.4-4.5-17.6
	c-3-5.1-7.6-9.2-13.6-12.2c-6.1-3-13.5-4.5-22.3-4.5h-37.6v116.6h15.2v-47.7h18.4l27.8,47.7h18.2l-29.3-48.8
	C1297.5,604.4,1304.4,600.3,1309,594.2z M1253.1,595.3v-44.2h22.4c8.4,0,14.6,1.9,18.6,5.7c4.1,3.8,6.1,9.1,6.1,16.1
	c0,6.8-2.1,12.2-6.2,16.3c-4.1,4.1-10.3,6.1-18.6,6.1H1253.1z M1085.8,212.1h145v33.7c-2.8,20.4-10,39.2-21.8,56.4
	c-11.7,17.2-27,30.8-45.8,41.1c-18.8,10.2-39.7,15.3-62.6,15.3c-24.7,0-47.3-5.7-67.7-17.2c-20.4-11.5-36.7-27.4-48.6-47.9
	c-12-20.4-18-43.5-18-69.3c0-25.7,6-48.8,18-69.3c12-20.4,28.3-36.4,48.8-47.9c20.6-11.5,43.1-17.2,67.6-17.2
	c28,0,52.9,6.9,74.7,20.6c21.8,13.8,37.7,33.2,47.5,58.5H1171c-6.8-13.1-16.3-23-28.4-29.7c-12.1-6.7-26.1-10-42-10
	c-17.4,0-32.9,3.9-46.6,11.7c-13.6,7.8-24.3,18.9-32,33.3c-7.7,14.4-11.5,31-11.5,50c0,18.9,3.8,35.6,11.5,50.1
	c7.7,14.5,18.4,25.7,32,33.5c13.6,7.8,29.1,11.7,46.6,11.7c23.5,0,42.5-6.6,57.1-19.7c14.6-13.1,23.6-30.9,26.9-53.4h-98.8V212.1z"
	/>
</svg>
